<svg width="2514" height="2514" viewBox="0 0 2514 2514" fill="none" xmlns="http://www.w3.org/2000/svg">
<path d="M1208.7 2462.01C1173.2 2450.57 1151.5 2434 1094.31 2375.62C1053.67 2334.2 1038.29 2315.27 1028.82 2295.94C1014.62 2267.54 1006.34 2226.91 1009.89 2204.42C1012.65 2188.25 1010.68 2187.06 993.715 2193.77C987.798 2196.14 964.919 2202.45 943.223 2208.37C907.721 2217.44 896.675 2218.62 832.771 2219.02C735.731 2219.02 738.098 2219.81 679.322 2159.85C632.774 2112.11 631.197 2110.93 605.95 2105.01C573.209 2097.12 522.323 2071.88 499.443 2052.55C489.581 2044.27 458.418 2013.5 430.016 1983.91C388.202 1940.91 375.579 1924.74 363.745 1900.68C334.949 1843.09 337.71 1779.58 371.24 1722.77C385.441 1698.31 425.677 1661.23 458.024 1642.3C512.461 1610.35 605.161 1588.65 706.54 1583.92C736.915 1582.34 767.683 1579.58 775.178 1577.21C783.068 1574.85 799.636 1562.22 814.625 1546.84C861.568 1499.5 889.181 1430.86 897.859 1338.16C902.593 1288.85 898.253 1200.49 885.236 1071.11C873.796 953.948 872.613 785.904 883.263 730.283C897.464 655.334 925.866 583.146 964.524 521.608C975.57 503.462 983.854 487.289 982.67 485.711C981.881 483.739 974.386 480.978 966.497 479.4C958.607 478.216 919.16 466.382 878.924 453.365C788.59 424.174 767.683 419.046 720.347 415.89C643.82 410.762 580.31 427.724 527.451 467.171C476.564 505.04 450.529 549.221 446.19 604.841L444.217 629.299L449.74 605.236C457.629 571.706 468.28 551.982 489.976 533.442C545.991 483.739 633.563 487.289 695.101 541.332C711.669 555.927 767.289 623.776 783.462 649.811C812.259 695.175 820.148 768.941 801.608 821.406C753.877 957.104 582.677 1022.19 448.557 956.315C425.283 944.875 409.504 932.252 370.846 894.777C344.022 868.742 311.281 833.635 297.869 816.672C274.989 787.481 273.017 785.904 255.66 784.326C224.892 781.17 207.929 770.125 162.171 722.788C109.312 668.746 103 657.701 103 623.382C103 591.824 116.806 565 138.108 554.744C158.62 545.276 167.299 546.854 185.05 564.605L201.618 580.384L210.296 569.733C215.03 563.422 225.286 540.148 233.175 516.874C253.293 459.282 267.494 432.063 296.291 396.166C340.866 339.757 400.826 297.549 471.83 271.119C531.395 249.029 564.136 243.506 631.591 243.506C704.568 243.506 739.282 250.212 847.761 285.714C970.441 325.951 985.431 329.106 1051.7 329.106C1124.29 329.501 1141.64 325.162 1179.51 297.549C1233.95 258.102 1271.42 247.451 1298.64 264.019C1309.69 270.725 1353.87 320.428 1380.69 355.93C1401.2 383.543 1398.05 415.101 1371.62 439.164C1361.36 448.631 1345.58 455.731 1317.18 465.199C1279.31 477.033 1275.76 479.005 1255.64 501.096C1221.33 537.781 1191.74 605.236 1173.2 687.286C1165.31 721.21 1164.52 738.567 1163.34 913.318C1162.55 1017.46 1162.15 1115.29 1162.94 1130.28L1164.13 1157.89L1183.46 1128.3C1220.93 1071.11 1376.35 804.838 1459.98 654.939C1516.39 553.166 1614.22 402.083 1667.08 333.445C1705.74 283.742 1776.74 205.637 1807.51 179.207C1878.12 118.459 1962.14 70.7279 2026.05 55.3435C2073.78 43.9039 2134.92 41.1425 2172 49.032C2203.95 55.738 2239.45 71.5168 2265.88 90.8459C2284.42 104.258 2355.03 187.097 2377.52 222.205C2422.09 290.843 2422.09 383.938 2377.91 451.787C2337.28 514.902 2257.6 552.771 2188.96 541.332C2142.81 533.442 2123.87 521.608 2068.65 465.199C2008.29 403.267 1996.46 383.543 1999.22 346.463C2000.8 326.345 2002.77 320.822 2011.84 312.933C2018.55 307.41 2027.62 303.86 2035.91 303.86C2046.95 303.86 2051.69 307.41 2069.83 328.317C2105.73 371.709 2110.86 374.865 2140.44 374.865C2172.79 374.865 2193.7 365.398 2216.97 341.729C2237.09 320.822 2246.95 295.971 2246.95 265.596C2246.95 246.267 2246.16 244.295 2236.3 240.35C2218.15 233.25 2171.21 231.672 2142.02 236.406C2052.87 252.184 1957.8 318.85 1858.79 435.613C1753.07 560.266 1708.89 628.115 1473.79 1027.71C1411.46 1133.43 1332.17 1262.03 1291.54 1322.78C1278.92 1341.71 1269.06 1357.1 1269.84 1357.1C1270.63 1357.1 1277.34 1353.94 1284.83 1350.39C1294.3 1345.26 1307.32 1343.29 1329.8 1343.29C1377.54 1343.29 1404.36 1357.49 1440.65 1403.25C1448.93 1413.51 1462.74 1429.68 1470.63 1439.15C1492.33 1462.82 1508.89 1490.43 1514.02 1510.15C1516.39 1519.22 1519.15 1526.72 1519.94 1526.72C1521.12 1526.72 1537.3 1517.25 1556.63 1505.42C1640.25 1453.35 1740.84 1411.14 1820.92 1393.78C1866.28 1383.92 1964.9 1383.92 2004.35 1393.78C2050.11 1405.22 2101 1432.44 2133.34 1462.82C2169.24 1496.74 2231.17 1572.48 2246.95 1602.06C2272.2 1649.79 2281.27 1719.22 2268.65 1769.32C2252.87 1830.46 2206.71 1887.27 2178.31 1880.17C2173.18 1878.98 2160.17 1868.33 2148.73 1856.1C2137.29 1844.27 2126.64 1834.41 2124.27 1834.41C2122.3 1834.41 2120.72 1841.11 2120.72 1849.79C2120.72 1943.68 2056.42 2005.21 1942.42 2020.6C1914.02 2024.15 1907.7 2026.51 1907.7 2032.04C1907.7 2049.39 1890.35 2092 1874.57 2113.3C1852.08 2144.46 1823.68 2164.58 1783.05 2178.39C1727.43 2197.71 1675.76 2194.56 1612.64 2168.92C1575.56 2153.53 1571.22 2155.11 1578.72 2180.36C1581.87 2190.61 1584.63 2214.68 1584.63 2233.61C1584.63 2288.44 1568.06 2316.06 1534.93 2316.85C1523.1 2317.24 1517.57 2314.08 1497.45 2293.97C1484.44 2281.34 1473.39 2271.48 1472.6 2272.66C1471.81 2273.45 1469.05 2286.87 1466.29 2302.64C1453.27 2377.99 1399.63 2439.92 1328.62 2461.62C1295.49 2471.87 1240.26 2471.87 1208.7 2462.01ZM1226.06 2354.71C1329.02 2332.62 1385.82 2231.24 1355.45 2123.16C1340.46 2069.51 1314.03 2026.51 1267.08 1980.36C1244.2 1957.88 1237.1 1948.41 1237.1 1940.13C1237.1 1930.66 1235.53 1929.08 1225.66 1929.08C1219.35 1929.08 1211.46 1927.9 1207.91 1926.71C1202.78 1924.74 1201.6 1927.11 1201.6 1936.58C1201.6 1948.01 1202.39 1948.8 1216.59 1948.8C1230 1948.8 1234.74 1951.56 1253.67 1971.68C1306.14 2026.51 1331.78 2091.6 1331.78 2168.52C1331.38 2277.4 1280.5 2344.46 1194.11 2350.38C1172.81 2351.95 1166.89 2353.53 1173.99 2355.5C1188.98 2359.84 1203.18 2359.45 1226.06 2354.71ZM1225.27 2301.86L1236.31 2295.94L1221.33 2279.76L1206.34 2263.2L1193.32 2270.69C1178.72 2279.37 1164.13 2301.07 1168.47 2308.17C1172.02 2314.08 1209.89 2309.74 1225.27 2301.86ZM1063.93 2209.94C1071.43 2171.68 1099.43 2149.98 1141.25 2149.98C1162.15 2149.98 1175.96 2155.11 1187.79 2168.13C1202.78 2183.91 1213.04 2170.1 1203.57 2147.22C1188.98 2112.51 1141.64 2101.46 1104.96 2124.34C1066.3 2148.41 1043.42 2198.11 1052.89 2237.95C1057.23 2257.67 1057.62 2258.07 1058.8 2244.66C1059.2 2237.16 1061.56 2221.38 1063.93 2209.94ZM1476.15 2187.46C1488.78 2157.08 1478.13 2101.46 1452.48 2065.17C1441.83 2050.18 1441.44 2050.18 1444.6 2061.23C1446.57 2067.93 1448.15 2097.12 1448.15 2126.71C1448.15 2170.89 1449.33 2181.94 1455.25 2190.61C1464.32 2204.82 1469.05 2204.03 1476.15 2187.46ZM1286.81 2123.16C1283.65 2110.93 1278.13 2093.97 1274.58 2085.69L1268.27 2070.7L1247.75 2082.53C1236.71 2088.84 1226.85 2095.94 1226.45 2097.52C1225.27 2101.07 1244.2 2126.71 1274.58 2163L1290.36 2181.94L1291.54 2163.79C1292.33 2153.93 1289.96 2135.78 1286.81 2123.16ZM1683.25 2073.46C1726.64 2060.44 1764.91 2030.46 1785.81 1994.17C1800.8 1967.74 1800.41 1963.79 1784.24 1985.1C1768.06 2006 1739.66 2025.73 1713.23 2033.61C1661.95 2049.39 1581.87 2043.87 1518.36 2020.2C1501.4 2013.89 1484.04 2007.58 1479.7 2006C1465.5 2000.87 1526.65 2039.93 1554.65 2053.73C1604.36 2077.8 1646.96 2084.5 1683.25 2073.46ZM759.794 1996.14C774.389 1993.38 772.812 1992.98 749.932 1994.96C734.942 1996.14 699.44 1998.51 671.038 2000.48L619.757 2003.64L680.9 2001.66C714.43 2000.48 749.932 1998.11 759.794 1996.14ZM609.106 1997.32C605.161 1996.53 598.85 1996.53 595.3 1997.32C591.355 1998.51 594.511 1999.3 602.006 1999.3C609.501 1999.3 612.656 1998.51 609.106 1997.32ZM1684.83 1997.72C1689.17 1996.14 1674.57 1990.22 1646.56 1981.94C1622.11 1974.84 1584.24 1962.61 1562.54 1954.72C1512.05 1935.79 1499.43 1934.21 1482.07 1944.86C1474.97 1949.59 1470.24 1954.72 1472.21 1956.3C1479.7 1962.61 1529.8 1981.54 1563.33 1990.62C1597.65 1999.69 1668.66 2003.64 1684.83 1997.72ZM1419.74 1984.31C1427.63 1983.91 1427.63 1983.52 1421.72 1979.97C1417.77 1977.99 1407.52 1973.66 1398.44 1970.5L1382.27 1964.58L1395.29 1979.57C1403.18 1987.86 1409.09 1992.2 1409.88 1989.43C1410.67 1986.67 1415.01 1984.31 1419.74 1984.31ZM714.035 1956.69C739.676 1954.33 781.49 1948.01 806.736 1942.49C852.889 1932.24 936.123 1906.6 955.452 1896.34C965.708 1890.82 965.313 1890.42 932.967 1881.74C871.824 1865.57 837.505 1861.63 758.216 1862.81L684.056 1863.6L641.847 1819.02C599.639 1774.05 599.639 1774.05 587.016 1778.39C564.925 1785.89 530.606 1811.53 516.8 1830.07C501.416 1850.98 491.554 1879.77 491.554 1904.23C491.554 1919.22 493.132 1922.37 503.782 1928.69C531.395 1945.65 592.144 1958.67 649.342 1960.24C659.204 1960.24 688 1958.67 714.035 1956.69ZM1847.74 1910.15C1882.06 1906.2 1938.08 1891.21 1934.13 1887.27C1933.35 1886.48 1924.67 1888.45 1915.2 1892C1879.3 1905.81 1743.21 1903.05 1667.08 1887.66C1658 1885.69 1658 1885.69 1665.5 1889.24C1676.94 1894.37 1766.88 1909.36 1786.21 1909.36C1799.22 1909.36 1802.38 1910.93 1804.35 1918.43C1805.93 1924.35 1807.11 1925.14 1807.9 1920.8C1809.09 1916.06 1818.55 1913.7 1847.74 1910.15ZM1134.54 1861.23C1134.54 1849.79 1129.41 1846.64 1124.29 1854.53C1122.71 1857.29 1114.82 1858.08 1104.56 1856.89C1088.78 1855.31 1087.2 1856.1 1087.2 1863.6C1087.2 1871.09 1089.18 1871.88 1110.87 1871.88C1134.15 1871.88 1134.54 1871.49 1134.54 1861.23ZM1895.48 1855.71C1936.9 1844.27 1966.88 1813.89 1966.88 1783.91C1966.88 1770.9 1961.35 1767.35 1942.02 1767.35C1924.27 1767.35 1908.1 1776.81 1889.16 1798.9C1870.62 1819.81 1857.21 1825.33 1842.62 1817.84C1837.49 1815.08 1815.4 1793.78 1793.7 1770.5C1755.44 1729.48 1753.86 1727.11 1753.86 1710.15C1753.86 1631.25 1871.81 1590.62 1964.9 1637.96C1986.2 1649.01 2019.34 1681.75 2054.05 1725.93C2070.23 1746.44 2084.43 1763.4 2085.61 1763.4C2086.79 1763.4 2095.47 1748.02 2104.94 1729.48C2121.11 1698.31 2122.3 1693.58 2122.69 1665.57C2122.69 1617.05 2109.67 1601.67 2054.84 1585.5C2035.91 1579.58 2012.24 1576.82 1974.76 1575.24C1928.61 1573.66 1915.2 1574.45 1874.17 1583.13C1793.31 1599.7 1719.54 1630.86 1622.11 1689.24C1551.5 1731.45 1551.89 1731.06 1596.86 1728.69C1690.35 1723.96 1762.54 1757.09 1821.32 1831.25C1843.41 1859.26 1846.56 1862.02 1859.58 1862.02C1867.47 1862.02 1883.64 1859.26 1895.48 1855.71ZM388.597 1819.81C388.202 1793.38 387.808 1791.02 384.652 1802.85C381.496 1815.47 383.469 1850.19 387.414 1850.19C388.202 1850.19 388.991 1836.38 388.597 1819.81ZM2008.29 1809.56C2014.61 1788.25 2015.39 1771.29 2010.27 1755.51C2007.9 1748.81 2007.11 1755.51 2006.72 1777.6C2006.32 1802.85 2004.35 1813.5 1996.46 1828.88C1988.97 1844.27 1988.57 1846.24 1994.49 1839.14C1998.83 1834.01 2005.14 1820.6 2008.29 1809.56ZM1435.92 1818.63C1443.41 1818.63 1454.06 1820.21 1459.59 1822.57C1469.45 1826.12 1469.84 1825.73 1469.84 1812.71C1469.84 1799.69 1470.63 1798.9 1491.93 1792.2C1504.16 1788.65 1512.44 1784.7 1510.08 1783.91C1507.71 1783.13 1492.33 1788.25 1474.97 1794.57C1442.62 1807.19 1426.06 1809.56 1409.09 1802.85C1399.23 1799.3 1398.84 1799.69 1398.84 1815.08V1830.86L1410.67 1824.55C1416.98 1821.39 1428.42 1818.63 1435.92 1818.63ZM1130.2 1801.27L1143.22 1793.78L1106.53 1782.34C1054.86 1766.95 993.715 1754.33 985.431 1757.49C980.698 1759.06 992.532 1765.77 1024.09 1778.79C1048.94 1789.44 1077.34 1801.67 1086.81 1806.01C1104.96 1814.29 1108.51 1813.89 1130.2 1801.27ZM1643.01 1768.93C1646.17 1766.16 1582.27 1767.74 1566.49 1770.9C1557.02 1772.87 1568.46 1773.26 1596.07 1772.08C1620.92 1770.9 1642.23 1769.71 1643.01 1768.93ZM1286.02 1755.91L1303.37 1757.49L1304.95 1742.89C1306.14 1729.48 1305.74 1728.69 1299.43 1734.61C1292.72 1740.52 1263.93 1740.52 1246.97 1734.21C1239.87 1731.45 1239.87 1731.84 1246.18 1735.79C1250.52 1738.55 1252.88 1745.26 1252.88 1754.33C1252.88 1768.14 1253.28 1768.53 1260.38 1761.43C1266.29 1756.7 1273 1755.12 1286.02 1755.91ZM2167.66 1660.84C2180.68 1581.55 2131.76 1497.13 2049.71 1456.9C1999.62 1432.05 1955.44 1422.58 1901.79 1425.34C1805.93 1430.47 1699.82 1469.92 1566.09 1550.39C1517.97 1579.58 1422.51 1643.88 1422.51 1647.43C1422.51 1648.22 1437.89 1638.75 1457.22 1626.13C1560.18 1557.49 1682.07 1499.11 1769.25 1477.02C1847.35 1457.29 1945.57 1456.5 2011.06 1475.04C2072.99 1492.8 2119.14 1529.88 2143.6 1581.55C2156.62 1608.38 2158.19 1615.48 2159.38 1650.19C2160.56 1671.49 2161.74 1688.45 2162.53 1687.66C2162.93 1686.88 2165.69 1674.65 2167.66 1660.84ZM1053.67 1664.78C1049.34 1662.81 1043.02 1661.23 1039.87 1661.23C1036.32 1661.23 1036.71 1662.81 1041.84 1664.78C1046.18 1666.76 1052.49 1668.34 1055.65 1668.34C1059.2 1668.34 1058.8 1666.76 1053.67 1664.78ZM1025.27 1656.9C1009.89 1650.58 925.077 1634.02 883.263 1628.89L842.633 1623.76V1609.95C843.027 1596.94 845 1594.57 863.54 1583.13C874.98 1576.42 904.17 1553.54 928.233 1533.03C1035.92 1440.33 1168.86 1267.95 1293.51 1059.27C1338.88 983.533 1380.69 912.529 1441.05 809.177C1474.58 751.979 1523.88 669.14 1550.71 624.959C1730.98 328.712 1889.95 168.162 2041.04 129.898C2087.58 118.459 2170.42 120.431 2205.14 133.843C2234.33 145.283 2259.57 170.134 2273.77 200.509C2282.85 220.232 2284.03 228.122 2284.42 264.413C2284.42 320.822 2277.32 341.335 2245.37 373.287C2211.45 407.212 2188.17 415.495 2132.55 413.523C2103.36 412.34 2087.19 409.973 2077.33 405.239C2065.1 398.928 2064.7 398.928 2071.41 404.845C2090.34 420.229 2114.41 428.119 2144.39 428.119C2170.03 428.119 2177.92 426.146 2203.95 413.918C2255.63 389.066 2286 350.408 2300.99 290.448C2309.28 256.524 2304.54 223.783 2286.79 187.886C2271.01 155.539 2255.63 137.788 2226.83 118.853C2159.38 73.4892 2069.83 74.2781 1970.82 120.826C1914.8 147.255 1865.89 183.547 1806.72 242.323C1693.51 355.536 1620.14 463.226 1434.34 789.059C1280.1 1059.27 1228.43 1144.08 1150.32 1256.51C1100.22 1327.91 1075.37 1361.04 1043.81 1398.12C1021.72 1424.16 1016.59 1428.1 1005.55 1428.1C993.715 1428.1 992.532 1426.92 992.532 1416.27C992.532 1409.56 1000.42 1380.77 1009.89 1351.97C1028.03 1299.11 1035.13 1267.55 1046.57 1197.34C1052.1 1164.6 1053.28 1118.84 1053.67 923.179C1054.46 670.324 1056.04 644.289 1075.37 566.578C1093.12 495.179 1122.31 434.036 1157.42 394.194C1171.62 378.021 1179.12 374.076 1206.73 364.609C1249.33 350.802 1265.51 342.124 1277.73 327.528C1289.17 314.116 1287.99 305.044 1274.58 301.493C1262.35 298.338 1243.42 307.41 1202 335.418C1154.26 367.764 1132.57 372.498 1045.79 369.737C974.386 367.37 945.59 361.453 840.661 327.528C722.714 289.659 657.626 277.825 598.061 284.531C490.37 296.365 393.725 346.463 333.765 421.018C306.547 454.548 288.401 488.867 272.622 534.626C258.422 576.44 245.01 600.897 230.02 611.547C207.14 628.904 159.804 625.748 153.887 606.419C151.52 598.53 151.125 598.53 145.997 607.997C143.236 613.125 140.869 621.015 140.475 625.354C140.475 637.977 158.226 660.856 174.005 668.351C187.417 675.057 188.995 675.057 205.168 667.168C214.241 662.434 225.68 653.756 230.414 647.05C237.515 637.583 242.248 635.216 254.477 635.216H269.467L272.228 658.884C278.145 710.56 304.18 763.024 343.627 803.26C396.486 857.303 467.491 880.577 534.946 866.376C638.297 844.285 712.852 758.685 707.724 667.168C702.596 577.623 615.418 515.691 544.018 550.404C520.35 562.239 502.205 581.962 492.737 606.814C484.848 628.115 489.581 647.839 507.333 664.801C517.589 674.663 519.167 675.057 519.167 668.351C519.167 658.095 532.184 638.766 543.624 632.849C556.642 625.354 596.089 626.143 612.262 633.638C620.151 637.583 630.013 647.05 635.536 656.912C643.82 671.113 645.397 678.213 645.397 707.404C645.397 798.921 585.832 852.175 483.664 852.175C423.705 851.78 385.836 837.185 347.177 798.921C307.336 759.474 286.429 707.798 286.429 648.233V619.437H301.419C312.07 619.437 319.17 622.198 324.298 627.721C333.766 638.371 350.728 647.05 361.378 647.05C365.718 647.05 374.396 642.316 380.313 636.399L390.964 625.748L377.157 622.198C359.012 617.465 353.883 612.731 345.205 593.796C334.949 571.311 334.949 508.985 345.205 478.216C366.901 413.918 423.31 355.536 490.765 327.528C536.918 308.199 575.576 302.677 649.342 304.649C721.136 307.016 738.887 310.566 860.384 348.83C953.479 378.415 978.331 383.149 1052.89 385.516L1118.76 387.882V400.111C1118.37 409.973 1114.82 415.101 1098.64 428.119C1075.77 445.87 1033.16 495.179 1009.49 530.681C918.371 667.957 898.648 786.693 923.894 1047.44C937.306 1189.84 940.462 1323.57 931.783 1383.92C923.5 1439.15 913.638 1472.68 892.731 1512.91C873.402 1549.99 834.744 1592.6 805.553 1609.16C786.618 1619.82 781.49 1620.6 728.236 1622.97C665.121 1625.73 600.822 1634.02 573.998 1643.09C564.531 1646.24 560.981 1648.22 566.503 1647.03C642.636 1631.65 648.159 1631.25 761.766 1631.25C878.924 1631.65 923.499 1635.99 1000.42 1654.92C1025.27 1660.84 1037.9 1662.02 1025.27 1656.9ZM1208.31 1631.25C1227.24 1625.34 1252.88 1615.08 1264.72 1608.38C1287.6 1595.36 1319.94 1567.74 1319.94 1561.43C1319.94 1559.46 1303.37 1540.13 1283.65 1518.44C1241.84 1473.47 1233.16 1460.05 1233.16 1439.15C1233.16 1415.48 1222.11 1419.82 1197.26 1452.56C1160.58 1501.47 1118.76 1551.18 1084.44 1586.28L1051.31 1620.6L1080.1 1629.28C1095.88 1634.02 1120.34 1641.91 1134.15 1646.64C1158.21 1655.32 1159.79 1655.32 1166.49 1648.61C1170.04 1645.06 1188.98 1637.17 1208.31 1631.25ZM1404.75 1529.09C1416.59 1503.45 1420.14 1483.72 1416.98 1462.03C1409.88 1415.87 1356.63 1374.45 1317.97 1385.1C1300.22 1390.23 1278.52 1409.17 1273 1424.16C1271.03 1430.86 1269.85 1435.99 1270.24 1435.99C1271.03 1435.99 1278.13 1433.23 1285.62 1430.07C1304.16 1422.58 1332.96 1422.58 1349.13 1430.07C1367.67 1438.75 1375.96 1456.5 1378.32 1489.64C1380.69 1525.14 1374.38 1551.18 1357.02 1580.76L1343.61 1603.64L1369.65 1576.42C1384.24 1561.43 1400.02 1540.53 1404.75 1529.09ZM544.413 799.316L566.898 788.27L535.34 757.107C517.589 740.145 502.205 725.944 500.232 725.944C498.654 725.944 490.37 732.256 482.087 739.75C464.73 755.529 441.456 763.024 417.788 760.263C398.459 758.291 390.175 764.208 396.092 776.042C415.421 811.939 493.526 824.167 544.413 799.316Z" fill="#010101"/>
<path d="M1153.87 2365.36C1091.15 2348.01 1049.73 2302.64 1038.68 2239.13C1027.64 2174.84 1068.66 2110.14 1126.65 2099.49C1181.88 2089.63 1228.42 2124.74 1219.75 2170.5C1215.41 2194.56 1185.82 2218.23 1185.82 2197.71C1185.82 2187.06 1164.52 2166.95 1150.71 2163.79C1118.37 2156.69 1083.26 2183.91 1075.76 2221.78C1062.75 2286.87 1123.1 2346.43 1194.5 2338.15C1254.46 2331.05 1299.04 2284.89 1314.03 2215.07C1321.52 2179.57 1321.52 2156.69 1313.63 2119.61C1306.14 2082.13 1296.27 2056.89 1278.13 2028.49C1262.74 2004.82 1222.51 1960.64 1216.2 1960.64C1213.83 1960.64 1194.11 1970.89 1172.41 1983.91C1061.17 2048.61 949.928 2093.57 851.311 2113.3C806.736 2122.37 702.201 2122.77 679.321 2114.09C649.736 2103.44 658.809 2100.68 725.474 2100.28C839.477 2099.89 932.572 2075.43 1055.65 2013.89C1102.98 1990.22 1183.85 1943.28 1187.4 1937.36C1189.77 1933.42 1145.98 1899.1 1124.28 1887.27C1112.06 1880.56 1112.06 1880.56 1076.95 1900.28C1001.21 1943.28 903.381 1981.54 824.881 1998.11C633.563 2039.14 471.83 2007.58 402.403 1916.06C352.305 1849.4 360.589 1763.01 422.521 1702.26C478.93 1647.03 574.787 1617.45 716.402 1611.14C769.655 1608.77 774.783 1607.98 793.718 1597.33C822.909 1580.76 861.567 1538.16 880.896 1501.08C901.803 1460.84 911.665 1427.31 919.949 1372.09C928.233 1316.07 925.866 1204.44 913.637 1080.97C888.785 825.351 898.253 712.927 955.057 593.796C986.614 527.92 1042.23 452.576 1085.63 416.679L1106.53 399.717L1040.66 397.35C966.496 394.983 941.645 390.249 848.549 360.664C734.942 324.767 707.723 318.85 649.342 316.878C565.319 313.722 505.754 329.106 450.528 368.553C388.202 413.129 349.544 478.216 349.544 538.57C349.544 580.779 363.745 606.025 389.78 609.97C402.797 612.336 404.77 613.914 404.77 623.382C404.77 630.088 400.43 639.16 393.33 646.655C383.468 657.306 379.129 658.884 361.378 658.884C339.682 658.884 324.298 652.967 312.463 639.555C301.418 627.326 298.262 629.299 298.262 648.233C298.657 732.65 364.928 817.856 444.611 836.001C502.598 849.413 566.108 830.873 602.005 790.243C644.213 742.117 643.425 665.984 600.427 645.472C567.686 630.088 541.257 644.289 529.422 683.736C523.9 701.092 489.975 680.58 480.114 653.756C468.674 623.382 482.086 576.44 508.515 553.955C539.679 527.525 590.171 519.241 632.379 533.837C675.377 548.827 712.851 597.346 719.952 648.233C738.492 779.592 625.279 890.833 481.691 882.549C420.943 878.999 373.212 857.303 331.793 815.094C292.345 774.858 266.31 722.394 260.393 670.718C258.815 657.701 256.449 647.05 254.476 647.05C252.504 647.05 247.376 652.572 242.248 658.884C231.597 673.085 205.956 686.497 188.205 686.497C169.271 686.497 149.152 675.452 138.107 659.278C121.539 635.216 127.457 591.035 148.364 579.99C158.62 574.467 162.564 577.228 165.326 591.035C168.087 604.447 186.233 613.914 200.434 609.575C225.68 601.291 241.853 578.412 260.788 522.792C302.602 400.111 390.174 320.428 522.716 284.531C617.784 258.496 699.439 266.385 852.494 315.694C949.534 346.858 987.403 355.141 1045.78 357.903C1119.95 361.059 1143.22 355.141 1192.92 321.611C1214.22 307.41 1239.86 293.209 1250.12 290.054C1295.88 276.247 1318.76 308.988 1287.2 342.518C1275.76 354.747 1258.4 363.425 1218.56 376.443C1190.95 385.91 1183.46 389.855 1169.25 406.028C1121.13 459.676 1084.05 557.505 1071.03 662.04C1068.27 686.891 1066.3 782.748 1065.9 935.014C1065.11 1130.28 1063.93 1176.43 1058.41 1209.17C1045.39 1290.83 1039.47 1312.92 1006.34 1410.35C1000.82 1426.52 1060.38 1354.73 1110.87 1284.12C1202.78 1155.52 1270.63 1045.07 1452.09 725.944C1559.39 536.992 1638.67 413.523 1713.23 319.639C1727.83 301.099 1764.51 261.257 1794.89 230.489C1874.17 151.594 1941.23 108.597 2022.89 85.3233C2178.31 40.7481 2308.09 111.753 2316.77 246.662C2321.9 325.162 2283.63 393.405 2216.57 425.357C2130.58 465.988 2026.44 426.935 2026.05 354.352C2026.05 338.574 2027.23 335.418 2033.54 335.418C2037.88 335.418 2043.01 340.152 2046.16 347.646C2059.97 381.571 2088.37 398.928 2132.55 401.689C2174.76 404.056 2201.58 393.405 2233.54 361.453C2263.12 331.868 2272.59 308.199 2272.19 264.413C2271.8 210.371 2241.03 164.612 2193.3 146.072C2158.59 132.265 2097.44 130.687 2053.26 141.733C1901.79 179.996 1742.81 340.546 1562.54 636.794C1535.72 680.974 1486.41 763.813 1452.88 821.012C1392.52 924.363 1350.71 995.368 1305.35 1071.11C1180.69 1279.78 1047.76 1452.16 940.067 1544.87C916.004 1565.38 886.813 1588.26 875.373 1594.96C863.934 1602.06 854.466 1608.38 854.466 1609.95C854.466 1611.14 872.612 1614.29 895.097 1617.05C994.504 1629.28 1109.29 1661.63 1240.65 1714.49C1265.11 1724.35 1279.31 1727.9 1282.86 1725.53C1285.62 1723.56 1320.34 1698.71 1360.18 1670.31C1505.34 1566.56 1564.12 1529.09 1648.93 1486.48C1749.52 1435.99 1816.19 1416.66 1901.79 1413.51C1949.52 1411.53 1961.75 1412.72 1992.52 1419.82C2123.08 1450.98 2197.64 1549.2 2180.28 1667.15C2174.76 1705.02 2155.43 1747.23 2133.34 1768.93C2109.67 1791.8 2106.52 1783.91 2124.66 1748.02C2153.85 1690.82 2155.83 1643.88 2131.37 1592.6C2091.13 1507.79 1987.78 1463.21 1858 1475.83C1742.42 1486.48 1611.06 1543.29 1444.2 1654.53C1382.66 1695.55 1316 1742.89 1316 1746.05C1316 1748.41 1340.06 1758.67 1392.13 1779.58L1431.18 1795.35L1461.56 1783.52C1555.84 1747.23 1665.1 1746.44 1731.38 1781.94C1767.27 1801.27 1803.17 1845.06 1815 1883.32C1816.98 1890.03 1820.13 1890.42 1851.69 1888.45C1952.67 1882.14 2011.84 1820.21 1990.54 1743.28C1985.41 1725.14 1958.59 1694.37 1938.87 1684.51C1914.02 1671.89 1887.98 1667.55 1861.95 1672.28C1835.12 1677.41 1816.58 1688.85 1803.17 1709.36C1792.12 1725.53 1783.45 1728.29 1779.5 1716.07C1775.16 1703.05 1790.94 1675.83 1809.88 1663.6C1833.54 1648.22 1853.27 1643.88 1889.95 1645.85C1985.02 1650.98 2045.77 1732.24 2020.52 1820.6C2004.35 1875.83 1940.05 1914.88 1851.29 1923.16C1834.73 1924.74 1820.92 1927.11 1820.92 1928.69C1820.53 1943.28 1807.11 1988.65 1798.83 2004.03C1778.32 2041.9 1735.32 2074.25 1689.56 2086.87C1663.53 2093.97 1604.75 2090.02 1574.38 2079.37C1549.13 2070.3 1510.87 2049.39 1458.8 2015.86C1424.08 1993.38 1413.43 1992.2 1433.16 2013.1C1472.6 2054.52 1494.3 2103.44 1494.69 2153.53C1495.48 2203.24 1477.34 2228.09 1452.09 2211.52C1437.49 2202.05 1433.16 2181.54 1435.92 2140.52C1441.04 2072.67 1425.27 2033.62 1370.83 1979.18C1351.5 1959.85 1335.72 1943.28 1335.72 1942.49C1335.72 1941.7 1340.06 1940.91 1345.19 1940.91C1360.97 1940.91 1405.94 1956.3 1458.01 1979.18C1586.21 2035.59 1658 2044.27 1725.06 2011.52C1754.65 1997.32 1779.5 1970.5 1787 1945.25C1789.76 1935.39 1791.73 1925.92 1790.55 1924.35C1789.76 1922.37 1782.26 1921.19 1773.58 1921.19C1718.36 1921.19 1569.64 1882.14 1457.61 1838.35L1435.52 1829.67L1400.02 1847.82C1365.7 1864.78 1320.34 1891.21 1271.03 1922.77L1248.15 1937.76L1281.28 1972.08C1316.39 2007.58 1331.78 2028.09 1349.13 2062.02C1386.21 2135.78 1385.42 2235.19 1347.16 2293.18C1307.71 2353.14 1223.69 2384.3 1153.87 2365.36ZM718.768 1983.91C779.517 1977.99 830.798 1966.95 894.308 1946.44C950.717 1927.9 1075.37 1869.52 1075.37 1862.02C1075.37 1855.31 993.32 1817.84 944.406 1801.67C835.532 1765.37 731.391 1753.15 644.608 1765.77C633.168 1767.35 629.618 1766.56 629.618 1762.22C629.618 1745.65 765.316 1740.13 840.66 1753.15C925.866 1768.14 987.009 1787.86 1067.88 1825.73L1109.69 1845.45L1162.55 1809.95C1230 1764.59 1241.84 1755.91 1239.08 1751.57C1235.92 1746.83 1144.01 1711.33 1091.94 1694.76C980.303 1659.66 897.069 1645.06 790.957 1642.3C614.628 1637.17 495.892 1668.34 435.538 1735.4C390.963 1785.1 388.991 1852.55 430.41 1906.99C455.262 1939.73 519.166 1971.29 578.337 1979.97C594.51 1982.33 612.261 1985.1 617.784 1985.88C638.296 1988.65 676.955 1988.25 718.768 1983.91ZM1284.44 1877.8C1307.32 1863.2 1339.67 1843.87 1356.63 1834.41C1373.2 1824.94 1387 1815.87 1387 1814.68C1387 1813.11 1363.33 1801.67 1334.54 1789.44L1282.07 1766.56L1240.65 1795.75C1217.77 1811.53 1187.4 1832.43 1172.8 1842.3C1158.21 1852.16 1146.37 1861.23 1146.37 1862.81C1146.37 1864.39 1163.73 1877.4 1184.64 1891.21C1222.51 1916.46 1223.3 1916.85 1233.16 1910.54C1238.68 1906.6 1261.56 1892 1284.44 1877.8ZM1787.39 1880.95C1781.08 1859.65 1757.02 1829.67 1733.74 1814.68C1706.52 1797.33 1654.45 1783.13 1617.37 1783.13C1571.22 1783.52 1473.79 1807.19 1486.01 1815.08C1495.09 1821 1607.91 1857.29 1650.51 1867.94C1694.3 1878.98 1750.7 1888.45 1774.77 1889.24C1788.57 1889.63 1789.76 1888.84 1787.39 1880.95Z" fill="white"/>
<path d="M1187.79 1665.97C1190.16 1663.6 1200.81 1659.66 1211.46 1656.9C1222.51 1654.13 1245.78 1645.06 1263.14 1636.78C1327.83 1606.01 1365.31 1556.7 1365.31 1501.08C1365.31 1468.34 1357.02 1451.38 1336.51 1441.51C1318.36 1432.84 1298.25 1437.17 1283.65 1452.56C1270.24 1467.15 1261.96 1464.79 1258.41 1445.85C1245.39 1375.24 1344.79 1342.9 1401.2 1399.31C1424.48 1422.58 1428.42 1433.62 1428.42 1477.41C1428.42 1511.73 1427.24 1519.62 1418.17 1538.55C1396.47 1585.1 1336.51 1634.41 1275.76 1655.71C1246.57 1665.97 1179.51 1673.86 1187.79 1665.97Z" fill="white"/>
</svg>
